<?xml version="1.0" encoding="utf-8"?>
<!DOCTYPE svg PUBLIC "-//W3C//DTD SVG 1.1//EN" "http://www.w3.org/Graphics/SVG/1.1/DTD/svg11.dtd">
<svg width="46" height="46" viewBox="0 0 46 46" fill="none" xmlns="http://www.w3.org/2000/svg">
<path fill-rule="evenodd" clip-rule="evenodd" d="M17.6742 0.0874176C11.0791 0.0874176 5.73172 5.32801 5.73172 11.7914V22.2612C5.73172 29.564 12.4796 35.0831 19.8108 33.7771L29.2271 32.1002C30.7241 31.8329 32.2681 32.0341 33.6421 32.675L40.5848 35.9154L42.4146 36.7703V11.7916C42.4146 5.32827 37.0672 0.0876751 30.4722 0.0876751L17.6742 0.0874176ZM8.29018 11.7914C8.29018 6.71302 12.4924 2.59478 17.6742 2.59478H30.4718C35.6536 2.59478 39.8558 6.71302 39.8558 11.7914V32.7972L34.7415 30.4103C32.8838 29.5438 30.7942 29.2708 28.768 29.6315L19.3532 31.3099C13.5937 32.3359 8.29018 27.9991 8.29018 22.2612V11.7914Z" fill="#222229" fill-opacity="0.4"/>
<path d="M23.3848 10.3493C23.6732 9.76217 24.4732 9.76217 24.7615 10.3493L25.9126 12.6957C26.3563 13.5992 27.0584 14.3345 27.9201 14.798L30.1617 16.0035C30.7213 16.3054 30.7213 17.1443 30.1617 17.4452L27.9201 18.6518C27.0584 19.1152 26.3563 19.8505 25.9126 20.7541L24.7615 23.1004C24.4732 23.6876 23.6732 23.6876 23.3848 23.1004L22.2337 20.7541C21.7901 19.8505 21.0879 19.1152 20.2262 18.6518L17.9846 17.4452C17.425 17.1443 17.425 16.3054 17.9846 16.0035L20.2262 14.798C21.0879 14.3345 21.7901 13.5992 22.2337 12.6957L23.3848 10.3493Z" fill="#222229" fill-opacity="0.7"/>
<path d="M16.1313 7.78376C16.2361 7.58805 16.5271 7.58805 16.6319 7.78376L17.0505 8.56588C17.2118 8.86707 17.4671 9.11217 17.7805 9.26666L18.5956 9.66849C18.7991 9.76913 18.7991 10.0488 18.5956 10.149L17.7805 10.5512C17.4671 10.7057 17.2118 10.9508 17.0505 11.252L16.6319 12.0341C16.5271 12.2299 16.2361 12.2299 16.1313 12.0341L15.7127 11.252C15.5514 10.9508 15.2961 10.7057 14.9827 10.5512L14.1676 10.149C13.9641 10.0488 13.9641 9.76913 14.1676 9.66849L14.9827 9.26666C15.2961 9.11217 15.5514 8.86707 15.7127 8.56588L16.1313 7.78376Z" fill="#222229" fill-opacity="0.5"/>
</svg>