<svg width="36" height="39" viewBox="0 0 36 39" fill="none" xmlns="http://www.w3.org/2000/svg">
<g clip-path="url(#clip0_1318_265)">
<path fill-rule="evenodd" clip-rule="evenodd" d="M11.6742 2.0874C5.07907 2.0874 -0.268311 7.32799 -0.268311 13.7914V24.2612C-0.268311 31.564 6.47957 37.0831 13.8108 35.7771L23.2271 34.1002C24.7241 33.8329 26.2681 34.0341 27.6421 34.675L34.5848 37.9154L36.4146 38.7703V13.7916C36.4146 7.32826 31.0672 2.08766 24.4722 2.08766L11.6742 2.0874ZM2.29015 13.7914C2.29015 8.713 6.49237 4.59476 11.6742 4.59476H24.4718C29.6536 4.59476 33.8558 8.713 33.8558 13.7914V34.7972L28.7415 32.4103C26.8838 31.5438 24.7942 31.2708 22.768 31.6315L13.3532 33.3099C7.59367 34.3359 2.29015 29.9991 2.29015 24.2612V13.7914Z" fill="#222229" fill-opacity="0.4"/>
<path d="M17.3848 12.3493C17.6732 11.7622 18.4732 11.7622 18.7615 12.3493L19.9126 14.6957C20.3563 15.5992 21.0584 16.3345 21.9201 16.798L24.1617 18.0035C24.7213 18.3054 24.7213 19.1443 24.1617 19.4452L21.9201 20.6518C21.0584 21.1152 20.3563 21.8505 19.9126 22.7541L18.7615 25.1004C18.4732 25.6876 17.6732 25.6876 17.3848 25.1004L16.2337 22.7541C15.7901 21.8505 15.0879 21.1152 14.2262 20.6518L11.9846 19.4452C11.425 19.1443 11.425 18.3054 11.9846 18.0035L14.2262 16.798C15.0879 16.3345 15.7901 15.5992 16.2337 14.6957L17.3848 12.3493Z" fill="#222229" fill-opacity="0.8"/>
<path d="M10.1313 9.78375C10.2361 9.58804 10.5271 9.58804 10.6319 9.78375L11.0505 10.5659C11.2118 10.8671 11.4671 11.1122 11.7805 11.2666L12.5956 11.6685C12.7991 11.7691 12.7991 12.0488 12.5956 12.149L11.7805 12.5512C11.4671 12.7057 11.2118 12.9508 11.0505 13.252L10.6319 14.0341C10.5271 14.2299 10.2361 14.2299 10.1313 14.0341L9.71274 13.252C9.55144 12.9508 9.29614 12.7057 8.98274 12.5512L8.16764 12.149C7.96414 12.0488 7.96414 11.7691 8.16764 11.6685L8.98274 11.2666C9.29614 11.1122 9.55144 10.8671 9.71274 10.5659L10.1313 9.78375Z" fill="#222229" fill-opacity="0.5"/>
</g>
<defs>
<clipPath id="clip0_1318_265">
<rect width="36" height="39" fill="white"/>
</clipPath>
</defs>
</svg>
