<?xml version="1.0" encoding="utf-8"?>
<!DOCTYPE svg PUBLIC "-//W3C//DTD SVG 1.1//EN" "http://www.w3.org/Graphics/SVG/1.1/DTD/svg11.dtd">
<svg width="46" height="54" viewBox="0 0 46 54" fill="none" xmlns="http://www.w3.org/2000/svg">
<path fill-rule="evenodd" clip-rule="evenodd" d="M17.6742 0.0874176C11.0791 0.0874176 5.73172 5.32801 5.73172 11.7914V22.2612C5.73172 29.564 12.4796 35.0831 19.8108 33.7771L29.2271 32.1002C30.7241 31.8329 32.2681 32.0341 33.6421 32.675L40.5848 35.9154L42.4146 36.7703V11.7916C42.4146 5.32827 37.0672 0.0876751 30.4722 0.0876751L17.6742 0.0874176ZM8.29018 11.7914C8.29018 6.71302 12.4924 2.59478 17.6742 2.59478H30.4718C35.6536 2.59478 39.8558 6.71302 39.8558 11.7914V32.7972L34.7415 30.4103C32.8838 29.5438 30.7942 29.2708 28.768 29.6315L19.3532 31.3099C13.5937 32.3359 8.29018 27.9991 8.29018 22.2612V11.7914Z" fill="#222229" fill-opacity="0.4"/>
<path d="M23.3848 10.3493C23.6732 9.76217 24.4732 9.76217 24.7615 10.3493L25.9126 12.6957C26.3563 13.5992 27.0584 14.3345 27.9201 14.798L30.1617 16.0035C30.7213 16.3054 30.7213 17.1443 30.1617 17.4452L27.9201 18.6518C27.0584 19.1152 26.3563 19.8505 25.9126 20.7541L24.7615 23.1004C24.4732 23.6876 23.6732 23.6876 23.3848 23.1004L22.2337 20.7541C21.7901 19.8505 21.0879 19.1152 20.2262 18.6518L17.9846 17.4452C17.425 17.1443 17.425 16.3054 17.9846 16.0035L20.2262 14.798C21.0879 14.3345 21.7901 13.5992 22.2337 12.6957L23.3848 10.3493Z" fill="#222229" fill-opacity="0.7"/>
<path d="M16.1313 7.78376C16.2361 7.58805 16.5271 7.58805 16.6319 7.78376L17.0505 8.56588C17.2118 8.86707 17.4671 9.11217 17.7805 9.26666L18.5956 9.66849C18.7991 9.76913 18.7991 10.0488 18.5956 10.149L17.7805 10.5512C17.4671 10.7057 17.2118 10.9508 17.0505 11.252L16.6319 12.0341C16.5271 12.2299 16.2361 12.2299 16.1313 12.0341L15.7127 11.252C15.5514 10.9508 15.2961 10.7057 14.9827 10.5512L14.1676 10.149C13.9641 10.0488 13.9641 9.76913 14.1676 9.66849L14.9827 9.26666C15.2961 9.11217 15.5514 8.86707 15.7127 8.56588L16.1313 7.78376Z" fill="#222229" fill-opacity="0.5"/>
<path d="M0.319729 49.218L2.84168 40.3912H5.23753L7.74688 49.218H6.34719L5.76714 47.1374H2.31207L1.73202 49.218H0.319729ZM2.65253 45.8764H5.42668L4.14048 41.236H3.93873L2.65253 45.8764ZM8.31224 49.218V40.3912H9.6741V49.218H8.31224ZM15.4341 49.3945C14.9886 49.3945 14.5892 49.3189 14.2362 49.1675C13.8915 49.0162 13.6141 48.7935 13.4039 48.4992C13.2022 48.205 13.1013 47.8477 13.1013 47.4274C13.1013 46.9987 13.2022 46.6456 13.4039 46.3682C13.6141 46.0824 13.8957 45.868 14.2488 45.7251C14.6103 45.5822 15.018 45.5107 15.4719 45.5107H17.3634V45.1072C17.3634 44.7457 17.2541 44.4557 17.0355 44.2371C16.817 44.0186 16.4807 43.9093 16.0268 43.9093C15.5812 43.9093 15.2407 44.0144 15.0054 44.2245C14.77 44.4347 14.6145 44.7079 14.5388 45.0442L13.3283 44.6533C13.4291 44.317 13.5889 44.0144 13.8074 43.7454C14.0344 43.4679 14.3328 43.2452 14.7027 43.077C15.0726 42.9089 15.5182 42.8248 16.0394 42.8248C16.8464 42.8248 17.4811 43.0308 17.9434 43.4427C18.4058 43.8546 18.637 44.4389 18.637 45.1955V47.7553C18.637 48.0075 18.7547 48.1335 18.99 48.1335H19.5197V49.218H18.5487C18.2545 49.218 18.0149 49.1423 17.83 48.991C17.645 48.8397 17.5525 48.6337 17.5525 48.3731V48.3353H17.3634C17.2961 48.4614 17.1953 48.6085 17.0608 48.7766C16.9263 48.9448 16.7287 49.0919 16.4681 49.218C16.2075 49.3357 15.8628 49.3945 15.4341 49.3945ZM15.6232 48.3227C16.1444 48.3227 16.5648 48.1756 16.8842 47.8814C17.2037 47.5787 17.3634 47.1668 17.3634 46.6456V46.5195H15.5476C15.2029 46.5195 14.9255 46.5952 14.7153 46.7465C14.5052 46.8894 14.4001 47.1038 14.4001 47.3896C14.4001 47.6754 14.5094 47.9024 14.728 48.0705C14.9465 48.2386 15.245 48.3227 15.6232 48.3227ZM19.7016 46.1412V45.9521C19.7016 45.2964 19.8319 44.7373 20.0925 44.275C20.3615 43.8126 20.7146 43.4553 21.1517 43.2031C21.5889 42.9509 22.068 42.8248 22.5892 42.8248C23.1945 42.8248 23.6569 42.9383 23.9763 43.1653C24.3042 43.3923 24.5438 43.6361 24.6951 43.8967H24.8968V43.0014H26.1578V50.4916C26.1578 50.8699 26.0443 51.1725 25.8173 51.3995C25.5988 51.6265 25.2961 51.7399 24.9094 51.7399H20.723V50.6051H24.5059C24.7497 50.6051 24.8716 50.479 24.8716 50.2268V48.247H24.6699C24.5774 48.3984 24.4471 48.5539 24.279 48.7136C24.1108 48.8733 23.8881 49.0036 23.6106 49.1045C23.3416 49.2054 23.0012 49.2558 22.5892 49.2558C22.068 49.2558 21.5847 49.1339 21.1391 48.8901C20.702 48.6379 20.3531 48.2807 20.0925 47.8183C19.8319 47.3475 19.7016 46.7885 19.7016 46.1412ZM22.9423 48.1209C23.5056 48.1209 23.9679 47.9444 24.3294 47.5913C24.6993 47.2298 24.8842 46.7339 24.8842 46.1034V45.9899C24.8842 45.3426 24.7035 44.8466 24.342 44.5019C23.9805 44.1489 23.514 43.9723 22.9423 43.9723C22.3875 43.9723 21.9251 44.1489 21.5552 44.5019C21.1938 44.8466 21.013 45.3426 21.013 45.9899V46.1034C21.013 46.7339 21.1938 47.2298 21.5552 47.5913C21.9251 47.9444 22.3875 48.1209 22.9423 48.1209ZM30.2894 49.3945C29.6589 49.3945 29.1083 49.2642 28.6375 49.0036C28.1667 48.7346 27.7968 48.3605 27.5278 47.8814C27.2672 47.3938 27.1369 46.8305 27.1369 46.1916V46.0403C27.1369 45.393 27.2672 44.8298 27.5278 44.3506C27.7884 43.863 28.1499 43.489 28.6123 43.2284C29.083 42.9593 29.6253 42.8248 30.2389 42.8248C30.8358 42.8248 31.357 42.9593 31.8025 43.2284C32.2565 43.489 32.6096 43.8546 32.8618 44.3254C33.114 44.7962 33.2401 45.3468 33.2401 45.9773V46.4691H28.461C28.4778 47.0155 28.6585 47.4526 29.0032 47.7805C29.3563 48.0999 29.7934 48.2596 30.3146 48.2596C30.8022 48.2596 31.1679 48.1504 31.4116 47.9318C31.6638 47.7132 31.8572 47.461 31.9917 47.1752L33.0635 47.73C32.9458 47.9654 32.7735 48.2134 32.5465 48.474C32.328 48.7346 32.0379 48.9532 31.6764 49.1297C31.315 49.3063 30.8526 49.3945 30.2894 49.3945ZM28.4736 45.4729H31.916C31.8824 45.0021 31.7143 44.6364 31.4116 44.3758C31.109 44.1068 30.7139 43.9723 30.2263 43.9723C29.7387 43.9723 29.3394 44.1068 29.0284 44.3758C28.7258 44.6364 28.5408 45.0021 28.4736 45.4729ZM34.173 49.218V43.0014H35.4466V43.9345H35.6483C35.766 43.6823 35.9762 43.4469 36.2788 43.2284C36.5814 43.0098 37.0312 42.9005 37.6281 42.9005C38.0988 42.9005 38.5149 43.0056 38.8764 43.2157C39.2463 43.4259 39.5363 43.7243 39.7465 44.111C39.9567 44.4893 40.0617 44.9475 40.0617 45.4855V49.218H38.7629V45.5864C38.7629 45.0484 38.6284 44.6533 38.3594 44.4011C38.0904 44.1405 37.7205 44.0102 37.2498 44.0102C36.7117 44.0102 36.2788 44.1867 35.951 44.5398C35.6315 44.8928 35.4718 45.4056 35.4718 46.0782V49.218H34.173ZM43.4609 49.218C43.0826 49.218 42.7799 49.1045 42.553 48.8775C42.3344 48.6505 42.2251 48.3479 42.2251 47.9696V44.0984H40.5102V43.0014H42.2251V40.946H43.5239V43.0014H45.3775V44.0984H43.5239V47.7426C43.5239 47.9948 43.6416 48.1209 43.877 48.1209H45.1758V49.218H43.4609Z" fill="#246457"/>
</svg>