<?xml version="1.0" encoding="utf-8"?>
<!DOCTYPE svg PUBLIC "-//W3C//DTD SVG 1.1//EN" "http://www.w3.org/Graphics/SVG/1.1/DTD/svg11.dtd">
<svg width="20" height="20" viewBox="0 0 20 20" fill="currentColor" xmlns="http://www.w3.org/2000/svg">
<path d="M13.9767 7.56594C14.1233 7.37743 14.1047 7.10722 13.9333 6.94134C13.7631 6.77546 13.4961 6.76666 13.3147 6.92249L5.04746 14.0394L0.681715 12.3302C0.294172 12.1806 0.0283793 11.8149 0.00230559 11.3952C-0.0250199 10.9767 0.192344 10.5796 0.558756 10.381L18.6831 0.108368C18.9725 -0.049982 19.3253 -0.0336448 19.5998 0.149841C19.8755 0.334582 20.0271 0.657554 19.996 0.989349L18.4061 17.7579C18.3738 18.1061 18.1801 18.419 17.8857 18.6012C17.5901 18.7834 17.2262 18.8149 16.9057 18.6842L11.5921 16.603L8.25595 19.7649C8.00506 20.0025 7.6374 20.0665 7.32191 19.9271C7.00642 19.7863 6.80397 19.4696 6.80645 19.1215V16.6382L13.9767 7.56594Z" fill="currentColor" fill-opacity="0.7"/>
</svg>