<svg width="16" height="16" viewBox="0 0 16 16" fill="none" xmlns="http://www.w3.org/2000/svg">
<path d="M13.7342 2.2749C13.65 2.19052 13.55 2.12358 13.4399 2.0779C13.3298 2.03223 13.2117 2.00872 13.0925 2.00872C12.9733 2.00872 12.8553 2.03223 12.7452 2.0779C12.6351 2.12358 12.535 2.19052 12.4508 2.2749L8 6.71663L3.54916 2.26579C3.4649 2.18153 3.36486 2.11468 3.25476 2.06908C3.14466 2.02347 3.02665 2 2.90748 2C2.78831 2 2.6703 2.02347 2.5602 2.06908C2.4501 2.11468 2.35006 2.18153 2.26579 2.26579C2.18153 2.35006 2.11468 2.4501 2.06908 2.5602C2.02347 2.6703 2 2.78831 2 2.90748C2 3.02665 2.02347 3.14466 2.06908 3.25476C2.11468 3.36486 2.18153 3.4649 2.26579 3.54916L6.71663 8L2.26579 12.4508C2.18153 12.5351 2.11468 12.6351 2.06908 12.7452C2.02347 12.8553 2 12.9733 2 13.0925C2 13.2117 2.02347 13.3297 2.06908 13.4398C2.11468 13.5499 2.18153 13.6499 2.26579 13.7342C2.35006 13.8185 2.4501 13.8853 2.5602 13.9309C2.6703 13.9765 2.78831 14 2.90748 14C3.02665 14 3.14466 13.9765 3.25476 13.9309C3.36486 13.8853 3.4649 13.8185 3.54916 13.7342L8 9.28337L12.4508 13.7342C12.5351 13.8185 12.6351 13.8853 12.7452 13.9309C12.8553 13.9765 12.9733 14 13.0925 14C13.2117 14 13.3297 13.9765 13.4398 13.9309C13.5499 13.8853 13.6499 13.8185 13.7342 13.7342C13.8185 13.6499 13.8853 13.5499 13.9309 13.4398C13.9765 13.3297 14 13.2117 14 13.0925C14 12.9733 13.9765 12.8553 13.9309 12.7452C13.8853 12.6351 13.8185 12.5351 13.7342 12.4508L9.28337 8L13.7342 3.54916C14.0801 3.20329 14.0801 2.62077 13.7342 2.2749Z" fill="#9D9D9D"/>
</svg>
