<?xml version="1.0" encoding="utf-8"?>
<!DOCTYPE svg PUBLIC "-//W3C//DTD SVG 1.1//EN" "http://www.w3.org/Graphics/SVG/1.1/DTD/svg11.dtd">
<svg width="14" height="14" viewBox="0 0 14 14" fill="none" xmlns="http://www.w3.org/2000/svg">
<path d="M6.99999 8.4L2.09999 13.3C1.91665 13.4833 1.68332 13.575 1.39999 13.575C1.11665 13.575 0.883321 13.4833 0.699987 13.3C0.516654 13.1167 0.424988 12.8833 0.424988 12.6C0.424988 12.3167 0.516654 12.0833 0.699987 11.9L5.59999 7L0.699987 2.1C0.516654 1.91667 0.424988 1.68334 0.424988 1.4C0.424988 1.11667 0.516654 0.883336 0.699987 0.700003C0.883321 0.516669 1.11665 0.425003 1.39999 0.425003C1.68332 0.425003 1.91665 0.516669 2.09999 0.700003L6.99999 5.6L11.9 0.700003C12.0833 0.516669 12.3167 0.425003 12.6 0.425003C12.8833 0.425003 13.1167 0.516669 13.3 0.700003C13.4833 0.883336 13.575 1.11667 13.575 1.4C13.575 1.68334 13.4833 1.91667 13.3 2.1L8.39999 7L13.3 11.9C13.4833 12.0833 13.575 12.3167 13.575 12.6C13.575 12.8833 13.4833 13.1167 13.3 13.3C13.1167 13.4833 12.8833 13.575 12.6 13.575C12.3167 13.575 12.0833 13.4833 11.9 13.3L6.99999 8.4Z" fill="white" fill-opacity="0.6"/>
</svg>