<svg width="157" height="121" viewBox="0 0 157 121" fill="none" xmlns="http://www.w3.org/2000/svg">
<path d="M85.0576 0.391228C84.8432 -0.0255916 84.2484 -0.0255916 84.0341 0.391228L83.1782 2.05693C82.8484 2.69837 82.3264 3.22038 81.6857 3.54941L80.0191 4.4052C79.6031 4.61954 79.6031 5.21511 80.0191 5.42866L81.6857 6.28524C82.3264 6.61426 82.8484 7.13627 83.1782 7.77772L84.0341 9.44342C84.2484 9.86024 84.8432 9.86024 85.0576 9.44342L85.9134 7.77772C86.2432 7.13627 86.7652 6.61426 87.4059 6.28524L89.0725 5.42866C89.4885 5.21511 89.4885 4.61954 89.0725 4.4052L87.4059 3.54941C86.7652 3.22038 86.2432 2.69837 85.9134 2.05693L85.0576 0.391228Z" fill="#09090A" fill-opacity="0.7"/>
<path d="M98.399 22.5492C98.0224 21.8169 96.9776 21.8169 96.601 22.5492L95.0976 25.4752C94.5182 26.602 93.6012 27.519 92.4757 28.097L89.5481 29.6004C88.8173 29.9769 88.8173 31.0231 89.5481 31.3982L92.4757 32.903C93.6012 33.481 94.5182 34.398 95.0976 35.5248L96.601 38.4508C96.9776 39.1831 98.0224 39.1831 98.399 38.4508L99.9024 35.5248C100.482 34.398 101.399 33.481 102.524 32.903L105.452 31.3982C106.183 31.0231 106.183 29.9769 105.452 29.6004L102.524 28.097C101.399 27.519 100.482 26.602 99.9024 25.4752L98.399 22.5492Z" fill="#09090A" fill-opacity="0.7"/>
<path fill-rule="evenodd" clip-rule="evenodd" d="M114.51 65C103.184 65 94 73.0003 94 82.8672V98.8503C94 109.999 105.589 118.424 118.18 116.431L134.351 113.871C136.922 113.463 139.574 113.77 141.934 114.748L153.857 119.695L157 121V82.8676C157 73.0007 147.816 65.0004 136.49 65.0004L114.51 65Z" fill="#09090A" fill-opacity="0.7"/>
<path d="M156.5 82.8676V120.251L154.049 119.233L154.049 119.233L142.125 114.286L142.125 114.286C139.679 113.272 136.934 112.955 134.273 113.377C134.273 113.377 134.273 113.377 134.273 113.377L118.101 115.937L118.18 116.431L118.101 115.937C105.732 117.895 94.5 109.614 94.5 98.8503V82.8672C94.5 73.339 103.393 65.5 114.51 65.5L136.49 65.5004C147.607 65.5004 156.5 73.3393 156.5 82.8676Z" stroke="#9797A1" stroke-opacity="0.15"/>
<rect x="110" y="80" width="33" height="4" rx="2" fill="#F3F3F3" fill-opacity="0.6"/>
<rect x="109.999" y="88.0093" width="20.9165" height="4" rx="2" transform="rotate(-0.0319838 109.999 88.0093)" fill="#F3F3F3"/>
<rect x="110" y="96.0117" width="20.9165" height="4" rx="2" transform="rotate(-0.0319838 110 96.0117)" fill="#F3F3F3" fill-opacity="0.6"/>
<path fill-rule="evenodd" clip-rule="evenodd" d="M55.583 5C69.067 5 80 16.1611 80 29.9264V52.2243C80 67.7774 66.2037 79.5315 51.2147 76.7503L31.9626 73.1788C28.9018 72.6096 25.7451 73.038 22.9359 74.403L8.74129 81.3041L5 83.125V29.9269C5 16.1616 15.933 5.00055 29.417 5.00055L55.583 5Z" fill="#F3F3F3" fill-opacity="0.15"/>
<path fill-rule="evenodd" clip-rule="evenodd" d="M50.583 0C64.067 0 75 11.1611 75 24.9264V47.2243C75 62.7774 61.2037 74.5315 46.2147 71.7503L26.9626 68.1788C23.9018 67.6096 20.7451 68.038 17.9359 69.403L3.74129 76.3041L0 78.125V24.9269C0 11.1616 10.933 0.000548418 24.417 0.000548418L50.583 0Z" fill="#F3F3F3"/>
<path d="M0.5 24.9269V77.3256L3.52248 75.8545L3.52267 75.8544L17.7173 68.9533L17.7174 68.9532C20.6223 67.5418 23.8875 67.0984 27.0538 67.6872C27.0539 67.6872 27.054 67.6872 27.054 67.6872L46.3059 71.2587L46.2147 71.7503L46.3059 71.2587C60.9752 73.9806 74.5 62.4773 74.5 47.2243V24.9264C74.5 11.4274 63.7812 0.5 50.583 0.5L24.417 0.500548C11.2188 0.500548 0.5 11.428 0.5 24.9269Z" stroke="#9797A1" stroke-opacity="0.2"/>
<circle cx="49.1804" cy="21.0521" r="3.81963" fill="#16161A"/>
<path d="M33.6079 17.2324H40.0719V40.444L33.6079 35.1553V17.2324Z" fill="#16161A"/>
<path d="M33.6079 56.604L27.1439 56.604L27.1439 29.5727L33.6079 34.8615L33.6079 56.604Z" fill="#16161A"/>
<path d="M46.536 56.604L40.072 56.604L40.072 40.1502L46.536 45.4389L46.536 56.604Z" fill="#16161A"/>
<path d="M20.68 17.2324H27.144V29.8666L20.68 24.5779V17.2324Z" fill="#16161A"/>
</svg>
