<?xml version="1.0" encoding="utf-8"?>
<!DOCTYPE svg PUBLIC "-//W3C//DTD SVG 1.1//EN" "http://www.w3.org/Graphics/SVG/1.1/DTD/svg11.dtd">
<svg width="139" height="122" viewBox="0 0 139 122" fill="none" xmlns="http://www.w3.org/2000/svg">
<path fill-rule="evenodd" clip-rule="evenodd" d="M50.903 0C64.387 0 75.32 11.1611 75.32 24.9264V47.2243C75.32 62.7774 61.5237 74.5315 46.5347 71.7503L27.2826 68.1788C24.2218 67.6096 21.0651 68.038 18.2559 69.403L4.06129 76.3041L0.32 78.125V24.9269C0.32 11.1616 11.253 0.000548418 24.737 0.000548418L50.903 0ZM70.0891 24.9264C70.0891 14.1108 61.4976 5.34002 50.903 5.34002H24.7378C14.1432 5.34002 5.55167 14.1108 5.55167 24.9264V69.6631L16.0081 64.5799C19.8063 62.7344 24.0785 62.153 28.2212 62.9211L47.4702 66.4957C59.2459 68.6808 70.0891 59.4446 70.0891 47.2243V24.9264Z" fill="#09090A" fill-opacity="0.4"/>
<path d="M39.2273 21.8551C38.6379 20.6047 37.0022 20.6047 36.4127 21.8551L34.0592 26.8522C33.1521 28.7766 31.7166 30.3426 29.9547 31.3297L25.3717 33.897C24.2275 34.5401 24.2275 36.3268 25.3717 36.9674L29.9547 39.5372C31.7166 40.5242 33.1521 42.0903 34.0592 44.0146L36.4127 49.0117C37.0022 50.2622 38.6379 50.2622 39.2273 49.0117L41.5808 44.0146C42.4879 42.0903 43.9234 40.5242 45.6853 39.5372L50.2684 36.9674C51.4125 36.3268 51.4125 34.5401 50.2684 33.897L45.6853 31.3297C43.9234 30.3426 42.4879 28.7766 41.5808 26.8522L39.2273 21.8551Z" fill="#09090A"/>
<path d="M54.0576 16.3912C53.8432 15.9744 53.2484 15.9744 53.0341 16.3912L52.1782 18.0569C51.8484 18.6983 51.3264 19.2204 50.6857 19.5494L49.0191 20.4052C48.6031 20.6195 48.6031 21.2151 49.0191 21.4286L50.6857 22.2852C51.3264 22.6142 51.8484 23.1362 52.1782 23.7777L53.0341 25.4434C53.2484 25.8602 53.8432 25.8602 54.0576 25.4434L54.9134 23.7777C55.2432 23.1362 55.7652 22.6142 56.4059 22.2852L58.0725 21.4286C58.4885 21.2151 58.4885 20.6195 58.0725 20.4052L56.4059 19.5494C55.7652 19.2204 55.2432 18.6983 54.9134 18.0569L54.0576 16.3912Z" fill="#09090A" fill-opacity="0.5"/>
<path fill-rule="evenodd" clip-rule="evenodd" d="M95.9475 56C84.5562 56 75.32 65.4289 75.32 77.0578V95.8951C75.32 109.034 86.9751 118.964 99.6378 116.615L115.902 113.597C118.488 113.117 121.155 113.479 123.528 114.632L135.519 120.462L138.68 122V77.0583C138.68 65.4293 129.444 56.0005 118.053 56.0005L95.9475 56ZM79.7391 77.0578C79.7391 67.9208 86.9972 60.5113 95.9475 60.5113H118.052C127.002 60.5113 134.26 67.9208 134.26 77.0578V114.851L125.427 110.557C122.218 108.998 118.609 108.507 115.109 109.156L98.8475 112.176C88.8994 114.022 79.7391 106.219 79.7391 95.8951V77.0578Z" fill="#09090A" fill-opacity="0.4"/>
<rect x="91.32" y="76" width="33" height="4" rx="2" fill="#09090A" fill-opacity="0.4"/>
<rect x="91.3189" y="84.0092" width="20.9165" height="4" rx="2" transform="rotate(-0.0319838 91.3189 84.0092)" fill="#09090A"/>
<rect x="91.32" y="92.0117" width="20.9165" height="4" rx="2" transform="rotate(-0.0319838 91.32 92.0117)" fill="#09090A" fill-opacity="0.4"/>
</svg>