<?xml version="1.0" encoding="utf-8"?>
<!DOCTYPE svg PUBLIC "-//W3C//DTD SVG 1.1//EN" "http://www.w3.org/Graphics/SVG/1.1/DTD/svg11.dtd">
<svg width="16" height="16" viewBox="0 0 16 16" fill="none" xmlns="http://www.w3.org/2000/svg">
<path d="M15.4688 5.21875C15.5938 5.5 15.5 5.78125 15.2813 6L13.9375 7.21875C13.9688 7.46875 13.9688 7.75 13.9688 8C13.9688 8.28125 13.9688 8.5625 13.9375 8.8125L15.2813 10.0312C15.5 10.2188 15.5938 10.5312 15.4688 10.8125C15.3438 11.1875 15.1875 11.5312 15 11.875L14.8438 12.125C14.625 12.4688 14.4063 12.8125 14.1563 13.0938C13.9688 13.3438 13.6563 13.4062 13.375 13.3125L11.6563 12.7812C11.2188 13.0938 10.75 13.3438 10.2813 13.5625L9.87502 15.3438C9.81252 15.625 9.59377 15.8438 9.31252 15.9062C8.87502 15.9688 8.43752 16 7.96877 16C7.53127 16 7.09377 15.9688 6.65627 15.9062C6.37502 15.8438 6.15627 15.625 6.09377 15.3438L5.68752 13.5625C5.18752 13.3438 4.75002 13.0938 4.31252 12.7812L2.59377 13.3125C2.31252 13.4062 2.00002 13.3438 1.81252 13.125C1.56252 12.8125 1.34377 12.4688 1.12502 12.125L0.968768 11.875C0.781268 11.5312 0.625018 11.1875 0.500018 10.8125C0.375018 10.5312 0.468768 10.25 0.687518 10.0312L2.03127 8.8125C2.00002 8.5625 2.00002 8.28125 2.00002 8C2.00002 7.75 2.00002 7.46875 2.03127 7.21875L0.687518 6C0.468768 5.78125 0.375018 5.5 0.500018 5.21875C0.625018 4.84375 0.781268 4.5 0.968768 4.15625L1.12502 3.90625C1.34377 3.5625 1.56252 3.21875 1.81252 2.90625C2.00002 2.6875 2.31252 2.625 2.59377 2.71875L4.31252 3.25C4.75002 2.9375 5.21877 2.65625 5.68752 2.46875L6.09377 0.6875C6.15627 0.40625 6.37502 0.1875 6.65627 0.125C7.09377 0.0625 7.53127 0 8.00002 0C8.43752 0 8.87502 0.0625 9.31252 0.125C9.59377 0.15625 9.81252 0.40625 9.87502 0.6875L10.2813 2.46875C10.7813 2.65625 11.2188 2.9375 11.6563 3.25L13.375 2.71875C13.6563 2.625 13.9688 2.6875 14.1563 2.90625C14.4063 3.21875 14.625 3.5625 14.8438 3.90625L15 4.15625C15.1875 4.5 15.3438 4.84375 15.5 5.21875H15.4688ZM8.00002 10.5C8.87502 10.5 9.68752 10.0312 10.1563 9.25C10.5938 8.5 10.5938 7.53125 10.1563 6.75C9.68752 6 8.87502 5.5 8.00002 5.5C7.09377 5.5 6.28127 6 5.81252 6.75C5.37502 7.53125 5.37502 8.5 5.81252 9.25C6.28127 10.0312 7.09377 10.5 8.00002 10.5Z" fill="white" fill-opacity="0.6"/>
</svg>