<svg width="16" height="16" viewBox="0 0 16 16" fill="none" xmlns="http://www.w3.org/2000/svg">
<g clip-path="url(#clip0_776_43)">
<path d="M6.03999 1.73111C6.1133 1.30956 6.49614 1 6.94414 1H9.05626C9.50426 1 9.8871 1.30956 9.96041 1.73111L10.1339 2.72744C10.1852 3.01833 10.3889 3.261 10.6593 3.40411C10.719 3.43522 10.7788 3.46815 10.8385 3.50289C11.1032 3.65533 11.425 3.70278 11.7141 3.59933L12.7054 3.24467C12.9086 3.17172 13.1323 3.16998 13.3366 3.23978C13.541 3.30957 13.7128 3.44636 13.8214 3.62578L14.877 5.37344C14.9854 5.55288 15.0236 5.76321 14.9848 5.96702C14.946 6.17082 14.8328 6.35488 14.6652 6.48644L13.8482 7.12967C13.6096 7.31711 13.4915 7.60644 13.498 7.90122C13.4991 7.96733 13.4991 8.03345 13.498 8.09956C13.4915 8.39356 13.6096 8.68289 13.8482 8.87033L14.6661 9.51356C15.0114 9.78578 15.101 10.2563 14.8778 10.6258L13.8206 12.3734C13.7121 12.5528 13.5405 12.6897 13.3363 12.7596C13.1321 12.8295 12.9086 12.828 12.7054 12.7553L11.7141 12.4007C11.425 12.2972 11.1032 12.3447 10.8377 12.4971C10.7786 12.5313 10.7188 12.5645 10.6585 12.5967C10.3889 12.739 10.1852 12.9817 10.1339 13.2726L9.96041 14.2689C9.8871 14.6912 9.50426 15 9.05626 15H6.94332C6.49532 15 6.1133 14.6904 6.03918 14.2689L5.86568 13.2726C5.81517 12.9817 5.61154 12.739 5.34111 12.5959C5.28075 12.564 5.22101 12.5311 5.16191 12.4971C4.89718 12.3447 4.57543 12.2972 4.28545 12.4007L3.29415 12.7553C3.0911 12.8281 2.86762 12.8297 2.66344 12.7599C2.45926 12.6901 2.28762 12.5535 2.17903 12.3742L1.12256 10.6266C1.01418 10.4471 0.975983 10.2368 1.01476 10.033C1.05354 9.82918 1.16679 9.64512 1.33435 9.51356L2.15215 8.87033C2.39 8.68367 2.50811 8.39356 2.50241 8.09956C2.50115 8.03345 2.50115 7.96733 2.50241 7.90122C2.50811 7.60567 2.39 7.31711 2.15215 7.12967L1.33435 6.48644C1.16699 6.35492 1.05388 6.171 1.0151 5.96737C0.976327 5.76374 1.0144 5.55358 1.12256 5.37422L2.17903 3.62656C2.28752 3.44699 2.45925 3.31004 2.66362 3.24011C2.86799 3.17017 3.09172 3.17178 3.29496 3.24467L4.28545 3.59933C4.57543 3.70278 4.89718 3.65533 5.16191 3.50289C5.22055 3.46867 5.28029 3.43548 5.34111 3.40333C5.61154 3.261 5.81517 3.01833 5.86568 2.72744L6.03999 1.73111Z" stroke="#9D9D9D" stroke-width="1.5" stroke-linecap="round" stroke-linejoin="round"/>
<path d="M10.625 8C10.625 8.69619 10.3484 9.36387 9.85616 9.85616C9.36387 10.3484 8.69619 10.625 8 10.625C7.30381 10.625 6.63613 10.3484 6.14384 9.85616C5.65156 9.36387 5.375 8.69619 5.375 8C5.375 7.30381 5.65156 6.63613 6.14384 6.14384C6.63613 5.65156 7.30381 5.375 8 5.375C8.69619 5.375 9.36387 5.65156 9.85616 6.14384C10.3484 6.63613 10.625 7.30381 10.625 8Z" stroke="#9D9D9D" stroke-width="1.5" stroke-linecap="round" stroke-linejoin="round"/>
</g>
<defs>
<clipPath id="clip0_776_43">
<rect width="16" height="16" fill="white"/>
</clipPath>
</defs>
</svg>
