<?xml version="1.0" encoding="UTF-8"?>
<svg xmlns="http://www.w3.org/2000/svg" xmlns:xlink="http://www.w3.org/1999/xlink" width="16px" height="16px" viewBox="0 0 16 16" version="1.1">
<g id="surface1">
<path style=" stroke:none;fill-rule:nonzero;fill:rgb(100%,34.901962%,34.901962%);fill-opacity:1;" d="M 4.898438 14.160156 C 4.648438 14.160156 4.339844 13.984375 4.214844 13.765625 L 1.117188 8.398438 C 0.992188 8.179688 0.992188 7.824219 1.117188 7.609375 L 4.214844 2.238281 C 4.339844 2.023438 4.648438 1.84375 4.898438 1.84375 L 11.097656 1.84375 C 11.347656 1.84375 11.65625 2.023438 11.78125 2.238281 L 14.882812 7.609375 C 15.007812 7.824219 15.007812 8.179688 14.882812 8.398438 L 11.78125 13.765625 C 11.65625 13.984375 11.347656 14.160156 11.097656 14.160156 Z M 4.898438 14.160156 "/>
<path style=" stroke:none;fill-rule:nonzero;fill:rgb(100%,100%,100%);fill-opacity:1;" d="M 5.140625 12.949219 L 10.851562 12.949219 L 13.710938 8 L 10.851562 3.054688 L 5.140625 3.054688 L 2.289062 8.003906 Z M 10.984375 13.40625 L 5.011719 13.40625 C 4.929688 13.40625 4.855469 13.359375 4.8125 13.289062 L 1.828125 8.117188 C 1.785156 8.046875 1.785156 7.960938 1.828125 7.890625 L 4.8125 2.714844 C 4.855469 2.644531 4.929688 2.601562 5.011719 2.601562 L 10.984375 2.601562 C 11.066406 2.601562 11.140625 2.644531 11.183594 2.714844 L 14.171875 7.890625 C 14.210938 7.960938 14.210938 8.046875 14.171875 8.117188 L 11.183594 13.289062 C 11.140625 13.359375 11.066406 13.40625 10.984375 13.40625 Z M 10.984375 13.40625 "/>
<path style=" stroke:none;fill-rule:nonzero;fill:rgb(100%,100%,100%);fill-opacity:1;" d="M 4.136719 8.726562 C 4.09375 8.695312 4.066406 8.644531 4.066406 8.585938 C 4.066406 8.492188 4.144531 8.417969 4.238281 8.417969 C 4.289062 8.417969 4.320312 8.429688 4.34375 8.449219 C 4.515625 8.585938 4.699219 8.664062 4.925781 8.664062 C 5.148438 8.664062 5.292969 8.554688 5.292969 8.402344 L 5.292969 8.394531 C 5.292969 8.246094 5.210938 8.167969 4.824219 8.078125 C 4.382812 7.972656 4.136719 7.839844 4.136719 7.460938 L 4.136719 7.453125 C 4.136719 7.097656 4.429688 6.851562 4.84375 6.851562 C 5.105469 6.851562 5.3125 6.921875 5.5 7.042969 C 5.542969 7.066406 5.582031 7.117188 5.582031 7.1875 C 5.582031 7.285156 5.503906 7.359375 5.410156 7.359375 C 5.375 7.359375 5.34375 7.347656 5.3125 7.332031 C 5.15625 7.226562 5 7.175781 4.835938 7.175781 C 4.625 7.175781 4.5 7.285156 4.5 7.421875 L 4.5 7.425781 C 4.5 7.585938 4.59375 7.65625 4.992188 7.75 C 5.429688 7.859375 5.65625 8.015625 5.65625 8.359375 L 5.65625 8.363281 C 5.65625 8.75 5.351562 8.984375 4.914062 8.984375 C 4.632812 8.984375 4.367188 8.898438 4.136719 8.726562 Z M 6.550781 7.222656 L 6.046875 7.222656 C 5.953125 7.222656 5.878906 7.144531 5.878906 7.054688 C 5.878906 6.960938 5.953125 6.882812 6.046875 6.882812 L 7.421875 6.882812 C 7.515625 6.882812 7.585938 6.960938 7.585938 7.054688 C 7.585938 7.144531 7.515625 7.222656 7.421875 7.222656 L 6.914062 7.222656 L 6.914062 8.789062 C 6.914062 8.890625 6.832031 8.972656 6.734375 8.972656 C 6.632812 8.972656 6.550781 8.890625 6.550781 8.789062 Z M 9.539062 7.925781 L 9.539062 7.921875 C 9.539062 7.515625 9.246094 7.183594 8.835938 7.183594 C 8.421875 7.183594 8.136719 7.511719 8.136719 7.914062 L 8.136719 7.921875 C 8.136719 8.324219 8.429688 8.65625 8.839844 8.65625 C 9.25 8.65625 9.539062 8.328125 9.539062 7.925781 Z M 7.753906 7.925781 L 7.753906 7.921875 C 7.753906 7.335938 8.203125 6.847656 8.839844 6.847656 C 9.476562 6.847656 9.921875 7.332031 9.921875 7.914062 L 9.921875 7.921875 C 9.921875 8.503906 9.46875 8.992188 8.835938 8.992188 C 8.199219 8.992188 7.753906 8.507812 7.753906 7.925781 Z M 11.148438 7.960938 C 11.421875 7.960938 11.59375 7.808594 11.59375 7.59375 L 11.59375 7.585938 C 11.59375 7.34375 11.421875 7.214844 11.148438 7.214844 L 10.726562 7.214844 L 10.726562 7.960938 Z M 10.359375 7.070312 C 10.359375 6.964844 10.441406 6.886719 10.542969 6.886719 L 11.175781 6.886719 C 11.664062 6.886719 11.964844 7.160156 11.964844 7.578125 L 11.964844 7.585938 C 11.964844 8.046875 11.589844 8.292969 11.136719 8.292969 L 10.726562 8.292969 L 10.726562 8.792969 C 10.726562 8.890625 10.644531 8.972656 10.542969 8.972656 C 10.441406 8.972656 10.359375 8.894531 10.359375 8.792969 Z M 10.359375 7.070312 "/>
</g>
</svg>
