<svg width="16" height="16" viewBox="0 0 16 16" fill="none" xmlns="http://www.w3.org/2000/svg">
<path d="M14 7.2486C13.8166 5.92629 13.2043 4.70108 12.2575 3.76171C11.3107 2.82233 10.0818 2.22089 8.76025 2.05005C7.43869 1.87921 6.09772 2.14843 4.9439 2.81625C3.79009 3.48407 2.88744 4.51344 2.375 5.74579M2 2.74018V5.74579H5M2 8.7514C2.18342 10.0737 2.7957 11.2989 3.74252 12.2383C4.68934 13.1777 5.91818 13.7791 7.23975 13.9499C8.56131 14.1208 9.90228 13.8516 11.0561 13.1837C12.2099 12.5159 13.1126 11.4866 13.625 10.2542M14 13.2598V10.2542H11" stroke="#9D9D9D" stroke-opacity="0.7" stroke-width="1.5" stroke-linecap="round" stroke-linejoin="round"/>
</svg>
